<?xml version="1.0" encoding="utf-8"?>
<!-- Generator: Adobe Illustrator 21.1.0, SVG Export Plug-In . SVG Version: 6.00 Build 0)  -->
<svg version="1.1" id="Capa_1" xmlns="http://www.w3.org/2000/svg" xmlns:xlink="http://www.w3.org/1999/xlink" x="0px" y="0px"
	 viewBox="0 0 94 94" style="enable-background:new 0 0 94 94;" xml:space="preserve">
<style type="text/css">
	.st0{fill:#636F84;}
</style>
<g>
	<g>
		<path class="st0" d="M68.8,41.8c-7.3,0-8.3,7.3-8.3,7.3H76C76,49.1,76.1,41.8,68.8,41.8z"/>
		<path class="st0" d="M33.5,49.1H19.7v12.7h13.2c2-0.1,5.6-0.7,5.6-6.2C38.4,49,33.5,49.1,33.5,49.1z"/>
		<path class="st0" d="M36.8,36.2c0-4.9-3.4-4.9-3.4-4.9h-1.8h-12v10.6h12.9C34.8,41.8,36.8,41.1,36.8,36.2z"/>
		<path class="st0" d="M89,0H5C2.2,0,0,2.2,0,5v84c0,2.8,2.2,5,5,5h84c2.8,0,5-2.2,5-5V5C94,2.2,91.8,0,89,0z M58.4,25.6h19.6v5.8
			H58.4V25.6z M48.5,56.2c0,14.5-15.1,14-15.1,14H19.7h-0.4H8.8V22.8h10.5h0.4h13.8c7.5,0,13.4,4.1,13.4,12.6s-7.2,9-7.2,9
			C49.2,44.4,48.5,56.2,48.5,56.2z M85.1,55.4H60.5c0,8.8,8.3,8.2,8.3,8.2c7.9,0,7.6-5.1,7.6-5.1h8.3c0,13.5-16.2,12.6-16.2,12.6
			c-19.5,0-18.2-18.1-18.2-18.1s0-18.2,18.2-18.2C87.8,34.9,85.1,55.4,85.1,55.4z"/>
	</g>
</g>
</svg>
