<?xml version="1.0" encoding="utf-8"?>
<!-- Generator: Adobe Illustrator 21.1.0, SVG Export Plug-In . SVG Version: 6.00 Build 0)  -->
<svg version="1.1" id="Capa_1" xmlns="http://www.w3.org/2000/svg" xmlns:xlink="http://www.w3.org/1999/xlink" x="0px" y="0px"
	 viewBox="0 0 26 26" style="enable-background:new 0 0 26 26;" xml:space="preserve">
<style type="text/css">
	.st0{fill:#636F84;}
</style>
<g>
	<path class="st0" d="M21.1,0H4.9C2.2,0,0,2.2,0,4.9v16.2C0,23.8,2.2,26,4.9,26h16.2c2.7,0,4.9-2.2,4.9-4.9V4.9
		C26,2.2,23.8,0,21.1,0z M20.5,14H18v9H14v-9h-1.6v-3H14V9c0-2.5,1.1-4,4-4h3v3h-1.8C18.1,8,18,8.5,18,9.3l0,1.7h2.8L20.5,14z"/>
</g>
</svg>
