<?xml version="1.0" encoding="utf-8"?>
<!-- Generator: Adobe Illustrator 21.1.0, SVG Export Plug-In . SVG Version: 6.00 Build 0)  -->
<svg version="1.1" id="Warstwa_1" xmlns="http://www.w3.org/2000/svg" xmlns:xlink="http://www.w3.org/1999/xlink" x="0px" y="0px"
	 viewBox="0 0 64 64" style="enable-background:new 0 0 64 64;" xml:space="preserve">
<style type="text/css">
	.st0{fill:#636F84;}
</style>
<g>
	<g>
		<path class="st0" d="M58,0H6C2.7,0,0,2.7,0,6v52c0,3.3,2.7,6,6,6h52c3.3,0,6-2.7,6-6V6C64,2.7,61.3,0,58,0z M43.8,9.8
			c0-2.2,1.8-4,4-4h5c2.2,0,4,1.8,4,4v6.1c0,2.2-1.8,4-4,4h-5c-2.2,0-4-1.8-4-4V9.8z M32,17.9c7.8,0,14.1,6.3,14.1,14.1
			S39.8,46.1,32,46.1S17.9,39.8,17.9,32S24.2,17.9,32,17.9z M58,60H6c-1.1,0-2-0.9-2-2V27.1h2h6.6h1.9c-0.4,1.6-0.7,3.2-0.7,4.9
			c0,10,8.1,18.1,18.1,18.1S50.1,42,50.1,32c0-1.7-0.3-3.3-0.7-4.9h1.9H58h2V58C60,59.1,59.1,60,58,60z"/>
	</g>
</g>
</svg>
